PathFileType	4	(X/Y/Z)	C:/Users/beibeiliu/ov580/test_trc/User1\sequence.20_training_dense_right.trc
DataRate	CameraRate	NumFrames	NumMarkers	Units	OrigDataRate	OrigDataStartFrame	OrigNumFrames
120	120	16	19	mm	120	99	263
Frame#	Time	ThumbCMC			ThumbMCP			ThumbIP			ThumbTip			IndexMCP			IndexPIP			IndexTip			MiddleMCP			MiddlePIP			MiddleTip			RingMCP			RingPIP			RingTip			PinkyMCP			PinkyPIP			PinkyTip			BackHand1			BackHand2			BackHand3	
		X0	Y0	Z0	X1	Y1	Z1	X2	Y2	Z2	X3	Y3	Z3	X4	Y4	Z4	X5	Y5	Z5	X6	Y6	Z6	X7	Y7	Z7	X8	Y8	Z8	X9	Y9	Z9	X10	Y10	Z10	X11	Y11	Z11	X12	Y12	Z12	X13	Y13	Z13	X14	Y14	Z14	X15	Y15	Z15	X16	Y16	Z16	X17	Y17	Z17	X18	Y18	Z18	
98	0.816667	140.591	13.9194	59.37	125.773	-4.6213	35.951	120.363	-13.533	9.41427	121.941	-28.8936	-16.9141	171.703	43.9784	-17.6248	180.31	42.7666	-47.9378	180.534	24.9801	-74.9482	196.386	47.3933	-25.4275	199.046	38.3304	-60.213	195.424	11.261	-77.567	215.292	37.4992	-15.5616	218.434	34.1145	-47.7208	215.668	12.9004	-68.6663	233.098	19.0243	0.608018	228.208	18.5998	-28.4989	225.216	12.0971	-52.2634	207.692	34.6387	39.3369	208.956	34.5248	73.0906	172.709	41.5146	48.9635	
99	0.825	147.117	18.4911	53.2846	134.816	-0.837708	29.8317	127.35	-10.1292	1.56155	130.685	-25.9552	-22.6434	180.365	48.1884	-19.6955	190.796	49.5189	-47.6684	198.041	29.5817	-75.1068	205.703	51.7743	-25.5739	213.345	43.9768	-56.671	210.265	14.4157	-77.8353	226.345	41.5623	-16.2006	234.166	36.6289	-48.0353	232.946	15.0548	-67.8968	243.547	23.0082	-0.142353	246.9	21.2929	-24.7227	240.976	19.397	-51.3148	217.966	36.5554	37.0457	216.819	36.7872	72.7734	181.219	42.7765	48.9037	
100	0.833333	156.4	19.2134	50.6869	140.288	0.206506	25.981	135.747	-11.287	1.31313	145.955	-24.1417	-23.2368	195.547	48.9318	-19.612	206.334	50.6713	-50.5847	214.374	33.0387	-71.6141	220.039	50.7743	-23.3522	229.38	43.6853	-56.7023	227.217	15.5593	-75.7605	238.163	42.2348	-12.2329	245.203	39.0593	-46.2264	244.82	13.6978	-68.2513	250.633	22.892	4.59119	253.938	24.2751	-19.5059	256.396	20.0336	-47.3484	223.173	37.2319	39.3878	223.292	37.0655	72.3951	190.238	45.7823	48.094	
101	0.841667	161.456	19.664	44.3548	153.052	-0.950669	20.2001	146.943	-13.1453	-6.9126	153.754	-29.477	-24.8139	203.742	50.5422	-23.0585	217.46	50.4685	-49.1882	228.442	30.1182	-73.5035	231.854	51.5948	-23.5563	240.124	45.1256	-53.6046	240.459	12.2937	-75.7925	245.76	42.8297	-12.2651	257.109	37.8364	-43.1825	257.283	14.9341	-64.6532	257.431	21.814	7.78071	265.122	22.4525	-18.3878	267.459	21.121	-44.7481	232.15	36.0855	43.6212	225.036	36.0037	74.2498	198.96	45.2101	47.2219	
102	0.85	170.722	18.6662	44.5392	158.1	-3.12929	19.4797	156.524	-16.8338	-8.48862	167.159	-32.5772	-23.3389	214.159	47.7618	-19.669	230.291	48.2488	-46.4014	240.378	29.3921	-70.5399	240.738	50.2021	-19.2094	253.76	42.7832	-52.7198	255.129	8.78689	-72.221	256.673	39.9978	-7.04114	267.267	37.602	-39.1203	269.384	15.2065	-60.6987	267.01	22.1933	7.86094	275.171	21.5018	-13.9029	278.924	18.7256	-39.3727	238.636	37.9204	40.2419	231.401	36.9767	77.178	205.374	44.6972	48.0981	
103	0.858333	171.902	15.7688	45.0292	165.914	-6.71503	19.1711	167.86	-19.809	-6.2204	180.055	-36.9219	-28.1515	223.864	45.7632	-20.2382	236.625	45.3449	-49.2512	245.578	27.0588	-72.0462	248.677	47.4919	-17.1084	258.328	41.4434	-51.5505	259.995	11.6069	-70.3648	262.162	40.6814	-7.66282	275.069	36.5918	-35.3264	278.653	14.0425	-56.3375	275.204	21.4748	10.6917	280.686	22.227	-10.2443	284.856	19.0957	-36.8138	245.037	36.4745	43.9289	233.419	36.8634	77.1041	204.847	43.8541	47.8577	
104	0.866667	179.236	12.2154	46.3481	167.848	-11.0554	16.5253	175.385	-23.8326	-7.51988	187.318	-39.8247	-23.7751	222.03	44.4047	-19.5369	239.911	44.1137	-48.7516	253.09	23.2326	-67.3949	248.638	48.7484	-19.3736	265.038	40.3491	-47.9644	268.73	9.15875	-66.2831	267.119	39.3675	-4.55601	277.835	35.5965	-36.5255	285.182	10.0714	-53.4151	276.819	20.905	15.6463	286.224	20.8009	-8.36232	287.505	15.7796	-38.7188	245.243	35.4887	48.4745	235.933	33.8761	79.8947	211.007	39.2943	50.3931	
105	0.875	179.322	10.1849	44.8543	170.782	-15.2401	17.4724	176.552	-29.6301	-8.84585	193.104	-44.2703	-24.9253	225.753	41.8619	-20.0299	241.513	40.3149	-45.7405	253.25	21.1228	-65.2383	251.682	44.9295	-16.7943	266.315	38.9718	-44.6613	269.666	5.8981	-64.6657	267.166	37.9064	-6.1625	279.146	32.3688	-35.6791	284.506	10.5737	-52.0442	277.815	19.095	16.1673	285.759	18.094	-10.6871	288.599	12.0753	-34.9042	246.867	32.8552	46.326	234.697	33.3196	78.6959	209.399	37.465	47.2624	
106	0.883333	174.06	6.27493	45.4053	168.505	-18.6667	19.0828	176.543	-32.7587	-7.5176	190.589	-48.1028	-20.8053	226.878	36.4648	-18.4491	242.57	35.1212	-42.3743	253.864	13.5908	-65.3253	252.673	41.0175	-16.6163	266.515	33.1879	-47.2096	268.719	-1.61086	-65.3076	265.213	35.1225	-4.99312	277.988	29.8059	-32.9465	281.082	6.70538	-51.1995	277.397	15.6175	18.4432	287.787	14.3354	-10.0649	289.997	7.60894	-32.8916	249.158	31.6089	47.788	237.434	30.6598	80.9732	209.443	35.958	47.1789	
107	0.891667	171.862	2.76792	47.4127	169.847	-20.9872	20.4427	174.242	-35.2498	-6.2338	186.643	-52.2119	-22.4572	220.161	34.2111	-18.5705	235.884	31.9287	-47.7135	247.77	6.76933	-67.5158	246.717	39.2276	-19.0683	259.327	30.1346	-48.1139	266.602	-1.4283	-62.6554	260.922	30.9715	-4.88422	278.069	24.1107	-34.9939	277.169	1.21162	-51.4812	274.502	14.0555	14.698	281.196	14.2738	-7.85401	280.214	3.93878	-36.5337	245.367	27.4215	47.4859	232.655	29.3925	76.6096	205.428	32.5416	49.4312	
108	0.9	170.39	1.28397	50.7022	161.185	-22.6573	20.635	162.491	-38.0121	-3.43048	179.172	-52.2958	-20.5223	213.544	31.3448	-16.2817	230.578	28.4578	-47.6058	238.452	5.23438	-67.7299	236.521	35.1948	-14.7821	255.094	28.6601	-46.2521	255.764	-2.99175	-65.0813	256.343	29.7638	-7.19758	270.864	22.9604	-35.2894	272.996	-3.7241	-53.3778	268.021	13.099	11.45	272.461	12.3563	-9.49006	274.338	1.97944	-38.1332	240.588	24.2376	48.5402	227.051	27.7439	77.012	201.032	32.138	50.5878	
109	0.908333	161.461	0.621239	52.7602	153.471	-21.4396	27.2108	155.257	-36.537	-2.00225	168.588	-51.0293	-19.3173	201.832	29.6262	-15.0672	217.564	28.8578	-43.469	228.679	5.43767	-68.1389	232.533	34.7416	-17.839	239.678	27.7951	-48.9565	247.195	-3.3951	-65.9492	249.893	27.7809	-5.48229	260.601	24.0208	-34.0682	261.958	-1.17076	-54.108	257.165	12.9668	12.3685	264.828	11.5014	-13.3105	261.401	1.03064	-38.6741	232.371	23.1696	47.7221	225.282	26.0749	78.9522	195.442	27.3633	53.5993	
110	0.916667	153.476	0.945346	52.71	143.064	-22.3899	28.9163	139.984	-35.5074	4.14874	152.225	-51.4136	-19.5859	194.622	28.561	-12.5551	207.09	26.7087	-45.3146	212.408	7.76478	-67.9301	215.491	34.4013	-16.2165	228.895	25.0032	-51.88	231.511	-5.38808	-69.321	236.487	26.7857	-4.88658	243.185	23.3071	-40.9127	245.241	1.65957	-56.3569	248.721	12.7105	11.2785	250.781	12.3479	-13.7568	252.659	3.96023	-41.8114	225.219	22.1612	48.4684	217.018	22.3939	80.8374	187.355	29.3756	52.6813	
111	0.925	147.383	-0.180471	56.4945	133.881	-21.9356	33.7491	128.134	-34.0675	8.87925	138.099	-49.1262	-14.4425	179.453	30.5127	-13.5492	189.596	29.2991	-45.7096	193.607	8.7921	-68.4953	203.454	35.3129	-17.05	208.778	29.9749	-50.9409	211.669	-5.12258	-72.3455	223.54	28.4199	-8.25707	226.561	24.9843	-41.3024	228.883	0.506155	-62.0097	234.351	11.821	10.076	238.815	13.3074	-16.6791	237.98	7.48832	-42.455	210.595	24.7565	42.7436	211.351	24.3041	77.7397	175.879	29.0348	57.433	
112	0.933333	136.285	0.116178	59.6338	124.451	-20.4008	34.0594	118.169	-33.1768	11.159	125.714	-48.6475	-13.4331	161.229	30.9879	-12.6542	173.13	30.4133	-45.3215	177.145	12.1433	-65.2354	185.407	37.6793	-21.6791	193.729	32.0886	-51.0142	191.128	-0.00752248	-73.34	205.215	31.5917	-11.7765	210.211	26.794	-44.9973	211.821	1.18211	-64.6762	223.831	13.7321	6.25314	228.085	15.7416	-20.9397	222.304	8.87695	-46.6962	202.618	27.4289	41.7368	200.647	25.7311	75.8482	166.184	27.4885	55.687	
113	0.941667	124.557	-0.608784	65.8247	108.796	-22.6669	41.9526	104.494	-32.6444	11.9305	111.343	-47.8975	-8.58702	148.604	32.8066	-9.78673	152.03	34.2659	-40.6155	160.268	11.8422	-67.6255	174.263	37.8556	-17.0322	177.191	31.2407	-54.3117	174.763	5.44005	-71.7693	189.583	32.1298	-12.8745	196.678	28.7831	-45.4273	192.449	3.78975	-66.8955	210.181	16.7839	0.972712	208.058	17.8773	-24.2429	206.284	13.0627	-47.7116	189.685	26.5165	40.4195	189.751	23.6438	77.7154	155.147	27.1441	59.6252	
